<?xml version="1.0" encoding="utf-8"?>
<!-- Generator: Adobe Illustrator 27.3.1, SVG Export Plug-In . SVG Version: 6.00 Build 0)  -->
<svg version="1.1" id="Layer_1" xmlns="http://www.w3.org/2000/svg" xmlns:xlink="http://www.w3.org/1999/xlink" x="0px" y="0px"
	 viewBox="0 0 612 792" style="enable-background:new 0 0 612 792;" xml:space="preserve">
<style type="text/css">
	.st0{fill:#0E171F;stroke:#EC2027;stroke-width:5;stroke-miterlimit:10;}
	.st1{fill:#0E171F;stroke:#BD202E;stroke-width:5;stroke-miterlimit:10;}
	.st2{fill:#0E171F;stroke:#EF4137;stroke-width:5;stroke-miterlimit:10;}
	.st3{fill:#0E171F;stroke:#F15A2B;stroke-width:5;stroke-miterlimit:10;}
	.st4{fill:#0E171F;stroke:#D8804F;stroke-width:5;stroke-miterlimit:10;}
</style>
<path class="st0" d="M330.31,94.53l138.53,309.73l138.53,309.72c0,0,0,0.01,0,0.01H330.31H53.26c-0.01,0-0.01-0.01-0.01-0.02
	l138.53-309.72L330.31,94.53z"/>
<path class="st1" d="M228.93,242.33l110.64,235.83l110.64,235.83c0,0,0,0.01,0,0.01H228.93H7.67c-0.01,0-0.01-0.01-0.01-0.01
	l110.63-235.82L228.93,242.33z"/>
<path class="st2" d="M358.86,301.05l107.29,204.78l107.28,204.77c0,0,0,0.01,0,0.01H358.86H144.3c-0.01,0-0.01-0.01-0.01-0.01
	l107.28-204.76L358.86,301.05z"/>
<path class="st3" d="M221.6,404.27l80.51,154.87L382.61,714c0,0,0,0,0,0H221.6h-161c0,0-0.01,0,0-0.01l80.5-154.86L221.6,404.27z"/>
<polygon class="st4" points="353.42,525.8 407.72,619.9 462.02,714 462.02,714 353.42,714 244.83,714 244.82,713.99 299.12,619.9 
	"/>
</svg>
