<?xml version="1.0" encoding="utf-8"?>
<!-- Generator: Adobe Illustrator 27.3.1, SVG Export Plug-In . SVG Version: 6.00 Build 0)  -->
<svg version="1.1" xmlns="http://www.w3.org/2000/svg" xmlns:xlink="http://www.w3.org/1999/xlink" x="0px" y="0px"
	 viewBox="0 0 612 792" style="enable-background:new 0 0 612 792;" xml:space="preserve">
<style type="text/css">
	.st0{fill:#4E96D1;}
	.st1{fill:#5FABDE;}
	.st2{fill:#6DC0EC;}
	.st3{fill:#FFFFFF;stroke:#000000;stroke-miterlimit:10;}
	.st4{fill:#70CDE3;}
	.st5{fill:#A9DFED;}
	.st6{fill:#8AC767;}
	.st7{fill:#B0D46A;}
	.st8{fill:#FEE6A0;}
	.st9{fill:#DBF1FA;}
	.st10{fill:#CEEBE9;}
	.st11{fill:#E2C1DC;}
	.st12{fill:#84BAE5;stroke:#FAB086;stroke-miterlimit:10;}
	.st13{fill:#FAB086;stroke:#84BAE5;stroke-miterlimit:10;}
	.st14{fill:#93CAD1;stroke:#FAB086;stroke-miterlimit:10;}
	.st15{fill:#EAA88D;stroke:#93CAD1;stroke-miterlimit:10;}
	.st16{fill:#F19788;stroke:#F9B789;stroke-miterlimit:10;}
	.st17{fill:#F9B789;stroke:#F19788;stroke-miterlimit:10;}
</style>
<g id="Background">
	<rect class="st0" width="612" height="152.49"/>
	<path class="st1" d="M0,231.03h612V63.05c-32.68,20.97-82.53,45.77-143.94,46.79c-68.97,1.15-113.55-28.35-159.63-46.79
		c-62.97-25.2-160.68-42.54-308.43,0C0,119.04,0,175.04,0,231.03z"/>
	<path class="st2" d="M612,346.26H0V178.29c32.68,20.97,82.53,45.77,143.94,46.79c68.97,1.15,113.55-28.35,159.63-46.79
		c62.97-25.2,160.68-42.54,308.43,0C612,234.28,612,290.27,612,346.26z"/>
	<path class="st3" d="M146.69,195.72"/>
	<path class="st4" d="M0,448.12h612V280.15c-32.68,20.97-82.53,45.77-143.94,46.79c-68.97,1.15-113.55-28.35-159.63-46.79
		c-62.97-25.2-160.68-42.54-308.43,0C0,336.14,0,392.13,0,448.12z"/>
	<path class="st5" d="M612,563.36H0V395.39c32.68,20.97,82.53,45.77,143.94,46.79c68.97,1.15,113.55-28.35,159.63-46.79
		c62.97-25.2,160.68-42.54,308.43,0C612,451.38,612,507.37,612,563.36z"/>
	<path class="st3" d="M146.69,412.82"/>
	<path class="st6" d="M0,676.76h612V508.79c-32.68,20.97-82.53,45.77-143.94,46.79c-68.97,1.15-113.55-28.35-159.63-46.79
		c-62.97-25.2-160.68-42.54-308.43,0C0,564.78,0,620.77,0,676.76z"/>
	<path class="st7" d="M612,792H0V624.03C32.68,645,82.53,669.8,143.94,670.82c68.97,1.15,113.55-28.35,159.63-46.79
		c62.97-25.2,160.68-42.54,308.43,0C612,680.02,612,736.01,612,792z"/>
	<path class="st3" d="M146.69,641.46"/>
</g>
<g id="Sun">
	<circle class="st8" cx="456.5" cy="108.15" r="63.03"/>
</g>
<g id="Clouds">
	<path class="st9" d="M535.05,171.11c-1.11,0.41-2.2,0.84-3.26,1.32c0.28-0.84,0.59-1.68,0.95-2.5
		C533.53,170.31,534.3,170.7,535.05,171.11z"/>
	<path class="st10" d="M626.5,128.61c-3.23,0-6.42,0.09-9.57,0.27c-4.59-31.51-49.69-56.23-104.65-56.23
		c-58.01,0-105.04,27.55-105.04,61.54c0,0.36,0.01,0.73,0.02,1.09c-4.74-0.71-9.69-1.09-14.79-1.09c-34.5,0-62.47,17.23-62.47,38.5
		c0,21.26,27.97,38.49,62.47,38.49c10.24,0,19.91-1.52,28.44-4.21c9.13,13.99,34.72,24.06,64.86,24.06
		c11.61,0,22.54-1.49,32.12-4.13c8.42,8.58,21.57,14.1,36.33,14.1c12.27,0,23.43-3.82,31.68-10.04c12.34,3.2,26.09,4.99,40.6,4.99
		c53.21,0,96.33-24.02,96.33-53.67C722.83,152.64,679.71,128.61,626.5,128.61z M535.05,171.11c-1.11,0.41-2.2,0.84-3.26,1.32
		c0.28-0.84,0.59-1.68,0.95-2.5C533.53,170.31,534.3,170.7,535.05,171.11z"/>
	<path class="st10" d="M535.05,171.11c-1.11,0.41-2.2,0.84-3.26,1.32c0.28-0.84,0.59-1.68,0.95-2.5
		C533.53,170.31,534.3,170.7,535.05,171.11z"/>
	<path class="st11" d="M535.05,171.11c-1.11,0.41-2.2,0.84-3.26,1.32c0.28-0.84,0.59-1.68,0.95-2.5
		C533.53,170.31,534.3,170.7,535.05,171.11z"/>
	<path class="st9" d="M74.36,280.75c-0.69,0.36-1.37,0.74-2.03,1.17c0.17-0.74,0.37-1.49,0.59-2.21
		C73.41,280.04,73.89,280.39,74.36,280.75z"/>
	<path class="st10" d="M131.29,243.11c-2.01,0-4,0.08-5.96,0.24c-2.86-27.91-30.94-49.8-65.16-49.8c-36.12,0-65.4,24.4-65.4,54.5
		c0,0.32,0.01,0.65,0.01,0.97c-2.95-0.63-6.03-0.97-9.21-0.97c-21.48,0-38.89,15.26-38.89,34.1c0,18.83,17.41,34.09,38.89,34.09
		c6.38,0,12.4-1.35,17.71-3.73c5.68,12.39,21.62,21.31,40.38,21.31c7.23,0,14.03-1.32,20-3.66c5.24,7.6,13.43,12.49,22.62,12.49
		c7.64,0,14.59-3.38,19.72-8.89c7.68,2.83,16.24,4.42,25.28,4.42c33.13,0,59.98-21.27,59.98-47.53
		C191.27,264.39,164.42,243.11,131.29,243.11z M72.33,281.92c0.17-0.74,0.37-1.49,0.59-2.21c0.49,0.34,0.97,0.68,1.44,1.05
		C73.66,281.12,72.99,281.5,72.33,281.92z"/>
	<path class="st10" d="M74.36,280.75c-0.69,0.36-1.37,0.74-2.03,1.17c0.17-0.74,0.37-1.49,0.59-2.21
		C73.41,280.04,73.89,280.39,74.36,280.75z"/>
	<path class="st11" d="M74.36,280.75c-0.69,0.36-1.37,0.74-2.03,1.17c0.17-0.74,0.37-1.49,0.59-2.21
		C73.41,280.04,73.89,280.39,74.36,280.75z"/>
</g>
<g id="Hills">
	<path class="st12" d="M348.5,714.5h-143c-5.52,0-10-4.48-10-10V176.03c0-45.01,36.49-81.5,81.5-81.5h0
		c45.01,0,81.5,36.49,81.5,81.5V704.5C358.5,710.02,354.02,714.5,348.5,714.5z"/>
	<path class="st13" d="M401.5,578h-143c-5.52,0-10-4.48-10-10V241.78c0-45.01,36.49-81.5,81.5-81.5h0c45.01,0,81.5,36.49,81.5,81.5
		V568C411.5,573.52,407.02,578,401.5,578z"/>
	<path class="st14" d="M308,633.43H165c-5.52,0-10-4.48-10-10V322.5c0-45.01,36.49-81.5,81.5-81.5h0c45.01,0,81.5,36.49,81.5,81.5
		v300.93C318,628.96,313.52,633.43,308,633.43z"/>
	<path class="st15" d="M425.5,714.5h-143c-5.52,0-10-4.48-10-10v-279c0-45.01,36.49-81.5,81.5-81.5h0c45.01,0,81.5,36.49,81.5,81.5
		v279C435.5,710.02,431.02,714.5,425.5,714.5z"/>
	<path class="st16" d="M283,714.5H140c-5.52,0-10-4.48-10-10V547c0-45.01,36.49-81.5,81.5-81.5h0c45.01,0,81.5,36.49,81.5,81.5
		v157.5C293,710.02,288.52,714.5,283,714.5z"/>
	<path class="st17" d="M377.5,714.5h-143c-5.52,0-10-4.48-10-10v-45c0-45.01,36.49-81.5,81.5-81.5h0c45.01,0,81.5,36.49,81.5,81.5
		v45C387.5,710.02,383.02,714.5,377.5,714.5z"/>
</g>
</svg>
