<?xml version="1.0" encoding="utf-8"?>
<!-- Generator: Adobe Illustrator 27.3.1, SVG Export Plug-In . SVG Version: 6.00 Build 0)  -->
<svg version="1.1" id="Layer_1" xmlns="http://www.w3.org/2000/svg" xmlns:xlink="http://www.w3.org/1999/xlink" x="0px" y="0px"
	 viewBox="0 0 612 792" style="enable-background:new 0 0 612 792;" xml:space="preserve">
<style type="text/css">
	.st0{fill:#84BAE5;stroke:#FAB086;stroke-miterlimit:10;}
	.st1{fill:#FAB086;stroke:#84BAE5;stroke-miterlimit:10;}
	.st2{fill:#93CAD1;stroke:#FAB086;stroke-miterlimit:10;}
	.st3{fill:#EAA88D;stroke:#93CAD1;stroke-miterlimit:10;}
	.st4{fill:#F19788;stroke:#F9B789;stroke-miterlimit:10;}
	.st5{fill:#F9B789;stroke:#F19788;stroke-miterlimit:10;}
</style>
<path class="st0" d="M348.5,714.5h-143c-5.52,0-10-4.48-10-10V176.03c0-45.01,36.49-81.5,81.5-81.5h0c45.01,0,81.5,36.49,81.5,81.5
	V704.5C358.5,710.02,354.02,714.5,348.5,714.5z"/>
<path class="st1" d="M401.5,578h-143c-5.52,0-10-4.48-10-10V241.78c0-45.01,36.49-81.5,81.5-81.5h0c45.01,0,81.5,36.49,81.5,81.5
	V568C411.5,573.52,407.02,578,401.5,578z"/>
<path class="st2" d="M308,633.43H165c-5.52,0-10-4.48-10-10V322.5c0-45.01,36.49-81.5,81.5-81.5h0c45.01,0,81.5,36.49,81.5,81.5
	v300.93C318,628.96,313.52,633.43,308,633.43z"/>
<path class="st3" d="M425.5,714.5h-143c-5.52,0-10-4.48-10-10v-279c0-45.01,36.49-81.5,81.5-81.5h0c45.01,0,81.5,36.49,81.5,81.5
	v279C435.5,710.02,431.02,714.5,425.5,714.5z"/>
<path class="st4" d="M283,714.5H140c-5.52,0-10-4.48-10-10V547c0-45.01,36.49-81.5,81.5-81.5h0c45.01,0,81.5,36.49,81.5,81.5v157.5
	C293,710.02,288.52,714.5,283,714.5z"/>
<path class="st5" d="M377.5,714.5h-143c-5.52,0-10-4.48-10-10v-45c0-45.01,36.49-81.5,81.5-81.5h0c45.01,0,81.5,36.49,81.5,81.5v45
	C387.5,710.02,383.02,714.5,377.5,714.5z"/>
</svg>
